<svg xmlns="http://www.w3.org/2000/svg" viewBox="0 0 1918 2010" width="1918" height="2010">
<defs>
  <linearGradient id="lring" x1="0" y1="0" x2="1" y2="0.25">
    <stop offset="0" stop-color="#e4e7eb"/>
    <stop offset="0.45" stop-color="#9aa0a8"/>
    <stop offset="1" stop-color="#5f646c"/>
  </linearGradient>
  <linearGradient id="lwave" x1="0" y1="0" x2="1" y2="0">
    <stop offset="0" stop-color="#c9cdd2"/>
    <stop offset="0.5" stop-color="#9aa0a8"/>
    <stop offset="1" stop-color="#5f646c"/>
  </linearGradient>
  <radialGradient id="lbody" cx="0.38" cy="0.32" r="0.8">
    <stop offset="0" stop-color="#1d1f23"/>
    <stop offset="1" stop-color="#0b0b0d"/>
  </radialGradient>
  <radialGradient id="lhl">
    <stop offset="0" stop-color="#ffffff" stop-opacity="0.96"/>
    <stop offset="0.45" stop-color="#eef0f2" stop-opacity="0.9"/>
    <stop offset="1" stop-color="#eef0f2" stop-opacity="0"/>
  </radialGradient>
  <radialGradient id="lhl2">
    <stop offset="0" stop-color="#9aa0a8" stop-opacity="0.95"/>
    <stop offset="0.5" stop-color="#9aa0a8" stop-opacity="0.75"/>
    <stop offset="1" stop-color="#9aa0a8" stop-opacity="0"/>
  </radialGradient>
  <radialGradient id="lshadow">
    <stop offset="0" stop-color="#0b0b0d" stop-opacity="0.9"/>
    <stop offset="0.7" stop-color="#0b0b0d" stop-opacity="0.45"/>
    <stop offset="1" stop-color="#0b0b0d" stop-opacity="0"/>
  </radialGradient>
</defs>
  <g transform="translate(459.22 60.00) scale(0.62500)">
    <circle cx="800" cy="800" r="800" fill="url(#lring)"/>
    <circle cx="788" cy="803" r="760" fill="url(#lbody)"/>
    <ellipse cx="470" cy="470" rx="245" ry="250" fill="url(#lhl)"/>
    <ellipse cx="1215" cy="480" rx="120" ry="330" transform="rotate(-38 1215 480)" fill="url(#lhl)"/>
    <ellipse cx="385" cy="975" rx="130" ry="140" fill="url(#lhl2)"/>
    <path fill="url(#lwave)" d="M240 1330 C 400 1450 640 1480 760 1440 C 880 1400 900 1290 960 1200
      C 1040 1080 1160 1040 1300 1020 C 1400 1005 1450 1000 1500 930 C 1550 860 1560 760 1545 690
      C 1560 760 1555 900 1520 980 C 1440 1160 1250 1300 1050 1400 C 820 1515 560 1500 385 1440 Z"/>
  </g>
  <ellipse cx="959.22" cy="1210.00" rx="460.00" ry="52.90" fill="url(#lshadow)"/>
  <path fill="#0b0b0d" d="M92.48 1674.16H233.22666666666666V1691.4933333333333Q233.22666666666666 1752.5066666666667 258.53333333333336 1784.7466666666667Q283.84000000000003 1816.9866666666667 342.77333333333337 1816.9866666666667Q400.32 1816.9866666666667 426.66666666666663 1786.8266666666668Q453.0133333333333 1756.6666666666667 453.0133333333333 1702.5866666666666V1410.0H596.5333333333333V1710.2133333333334Q596.5333333333333 1782.32 564.64 1834.32Q532.7466666666667 1886.32 475.8933333333333 1913.7066666666665Q419.04 1941.0933333333332 342.77333333333337 1941.0933333333332Q267.8933333333333 1941.0933333333332 211.38666666666666 1912.6666666666665Q154.88 1884.24 124.02666666666667 1830.5066666666667Q93.17333333333333 1776.7733333333333 93.17333333333333 1702.5866666666666ZM1454.1866666666667 1410.0V1930.0H1317.6V1461.3066666666666L1348.1066666666666 1464.7733333333333L1147.04 1930.0H1001.44L799.6800000000001 1466.1599999999999L830.88 1462.6933333333334V1930.0H694.2933333333333V1410.0H916.1600000000001L1102.6666666666667 1856.5066666666667H1047.2L1232.3200000000002 1410.0Z"/>
  <path fill="#5f646c" d="M1549.6447999999998 1507.344Q1551.8079999999998 1475.6170666666667 1570.5557333333331 1452.3626666666667Q1589.3034666666665 1429.1082666666666 1620.4895999999999 1416.6698666666666Q1651.6757333333333 1404.2314666666666 1690.9738666666665 1404.2314666666666Q1728.4693333333332 1404.2314666666666 1756.4106666666667 1415.5882666666666Q1784.3519999999999 1426.9450666666667 1799.854933333333 1447.1349333333333Q1815.3578666666665 1467.3248 1815.3578666666665 1494.0042666666668Q1815.3578666666665 1514.5546666666667 1804.1813333333332 1532.4010666666668Q1793.0048 1550.2474666666667 1769.2096 1567.3728Q1745.4144 1584.4981333333335 1706.8373333333332 1603.2458666666666L1632.5674666666666 1640.3808000000001L1629.6832 1621.2725333333335H1822.9290666666666V1680.4H1555.4133333333332V1628.4832000000001L1671.5050666666666 1563.2266666666667Q1698.5450666666666 1547.7237333333335 1713.5072 1537.0880000000002Q1728.4693333333332 1526.4522666666667 1734.7786666666666 1517.4389333333334Q1741.088 1508.4256 1741.088 1498.3306666666667Q1741.088 1487.1541333333334 1735.1392 1479.0421333333334Q1729.1904 1470.9301333333333 1717.2928 1466.2432Q1705.3952 1461.5562666666667 1688.0895999999998 1461.5562666666667Q1666.4576 1461.5562666666667 1652.7573333333332 1467.8656Q1639.0570666666665 1474.1749333333335 1632.2069333333332 1484.4501333333333Q1625.3567999999998 1494.7253333333333 1623.9146666666666 1507.344Z"/>
</svg>
